<?xml version="1.0" standalone="no"?>
<!DOCTYPE svg PUBLIC "-//W3C//DTD SVG 20010904//EN"
 "http://www.w3.org/TR/2001/REC-SVG-20010904/DTD/svg10.dtd">
<svg version="1.0" xmlns="http://www.w3.org/2000/svg"
 width="225.000000pt" height="225.000000pt" viewBox="0 0 225.000000 225.000000"
 preserveAspectRatio="xMidYMid meet">

<g transform="translate(0.000000,225.000000) scale(0.100000,-0.100000)"
fill="#000000" stroke="none">
<path d="M277 1973 c-4 -3 -7 -385 -7 -849 0 -758 2 -842 16 -848 9 -3 388 -6
844 -6 685 0 829 2 839 14 8 10 10 241 9 852 l-3 839 -91 3 c-101 3 -126 -8
-104 -47 9 -18 20 -21 70 -21 60 0 60 0 60 -30 l0 -30 -785 0 -785 0 0 30 0
30 489 0 c524 0 522 0 506 50 -6 20 -11 20 -529 20 -287 0 -526 -3 -529 -7z
m601 -215 c17 -17 17 -379 0 -396 -17 -17 -379 -17 -396 0 -13 13 -18 389 -5
401 12 13 388 8 401 -5z m890 0 c17 -17 17 -379 0 -396 -17 -17 -379 -17 -396
0 -17 17 -17 379 0 396 8 8 67 12 198 12 131 0 190 -4 198 -12z m-618 -168 l0
-30 -65 0 -65 0 0 -30 c0 -27 -3 -30 -30 -30 l-30 0 0 60 0 60 95 0 95 0 0
-30z m130 -30 l0 -60 -30 0 c-27 0 -30 -3 -30 -30 0 -27 3 -30 30 -30 28 0 30
-3 30 -35 0 -32 -2 -35 -30 -35 -29 0 -30 -1 -30 -50 0 -49 1 -50 30 -50 l30
0 0 -121 0 -120 33 3 c28 3 32 7 35 36 l3 33 127 -3 127 -3 3 -27 c3 -26 1
-28 -32 -28 -34 0 -36 -2 -36 -35 0 -32 -2 -35 -30 -35 -28 0 -30 3 -30 35 0
33 -2 35 -34 35 -32 0 -35 -3 -38 -32 l-3 -31 -82 2 -83 2 0 -30 c0 -21 -5
-31 -15 -31 -10 0 -15 -10 -15 -30 0 -27 3 -30 30 -30 28 0 30 -3 30 -35 0
-32 -2 -35 -30 -35 -27 0 -30 -3 -30 -30 0 -27 -3 -30 -30 -30 l-30 0 0 95 c0
52 -4 95 -9 95 -5 0 -11 12 -13 28 -2 15 -8 26 -15 24 -10 -1 -13 17 -13 68
l0 70 -30 0 c-28 0 -30 -3 -30 -35 0 -31 -3 -35 -25 -35 -24 0 -25 -2 -25 -65
l0 -65 -30 0 -30 0 0 65 0 65 -40 0 c-39 0 -40 -1 -40 -35 0 -32 -2 -35 -30
-35 -28 0 -30 3 -30 35 0 33 -2 35 -36 35 -33 0 -35 2 -32 28 l3 27 123 3 123
3 -3 26 c-3 26 -5 27 -60 24 l-58 -2 0 35 c0 33 -2 36 -29 36 -26 0 -30 -4
-33 -32 -3 -29 -7 -33 -35 -36 -32 -3 -33 -2 -33 32 l0 36 -66 0 -65 0 3 33
c3 32 3 32 66 35 l62 3 0 -36 c0 -32 2 -35 29 -35 26 0 30 4 33 33 3 28 7 32
36 35 31 3 32 2 32 -32 l0 -36 60 0 c33 0 60 4 60 10 0 6 14 10 30 10 l30 0 0
60 0 60 -30 0 c-28 0 -30 3 -30 35 0 32 2 35 30 35 27 0 30 3 30 30 0 27 3 30
30 30 l30 0 0 -110 0 -110 30 0 c29 0 30 1 30 50 0 49 1 50 30 50 27 0 30 3
30 30 0 27 -3 30 -30 30 -28 0 -30 3 -30 35 0 32 2 35 30 35 l30 0 0 60 0 60
35 0 35 0 0 -60z m-310 -255 c0 -33 -2 -35 -35 -35 -33 0 -35 2 -35 35 0 33 2
35 35 35 33 0 35 -2 35 -35z m410 -20 c0 -33 -2 -35 -35 -35 -32 0 -35 3 -35
28 0 36 6 42 42 42 25 0 28 -3 28 -35z m170 -30 c0 -32 2 -35 30 -35 28 0 30
3 30 35 l0 36 63 -3 c62 -3 62 -3 65 -35 l3 -33 -65 0 -66 0 0 -35 c0 -32 -2
-35 -29 -35 -26 0 -30 4 -33 33 -3 28 -7 32 -35 35 -32 3 -33 2 -33 -32 l0
-36 -65 0 -65 0 0 35 0 35 65 0 65 0 0 35 c0 33 2 35 35 35 33 0 35 -2 35 -35z
m-890 -160 l0 -65 30 0 c28 0 30 -3 30 -35 l0 -36 -62 3 -63 3 -3 84 c-2 46
-1 90 2 98 3 7 19 13 36 13 l30 0 0 -65z m1080 -35 l0 -100 -65 0 -65 0 0 35
c0 32 2 35 30 35 l30 0 0 65 0 65 35 0 35 0 0 -100z m-650 -140 l0 -70 -30 0
c-27 0 -30 -3 -30 -30 0 -27 3 -30 30 -30 28 0 30 -3 30 -35 0 -32 -2 -35 -30
-35 l-30 0 0 -60 0 -60 -35 0 -35 0 0 65 0 65 30 0 c27 0 30 3 30 30 0 27 -3
30 -30 30 -28 0 -30 3 -30 35 0 32 2 35 30 35 30 0 30 0 30 58 0 32 3 62 7 65
3 4 19 7 35 7 l28 0 0 -70z m250 5 c0 -33 -2 -35 -35 -35 -33 0 -35 2 -35 35
0 33 2 35 35 35 33 0 35 -2 35 -35z m-462 -37 c8 -8 12 -67 12 -200 0 -175 -1
-188 -19 -198 -29 -15 -374 -13 -389 2 -13 13 -18 389 -5 401 12 13 388 8 401
-5z m890 0 c17 -17 17 -379 0 -396 -17 -17 -379 -17 -396 0 -17 17 -17 379 0
396 17 17 379 17 396 0z m-488 -223 l0 -65 -95 0 -95 0 0 30 c0 29 1 29 63 32
62 3 62 3 65 36 3 28 7 32 33 32 l29 0 0 -65z"/>
<path d="M547 1693 c-4 -3 -7 -64 -7 -135 l0 -128 135 0 135 0 0 135 0 135
-128 0 c-71 0 -132 -3 -135 -7z m203 -128 l0 -75 -75 0 -75 0 0 68 c0 38 3 72
7 75 3 4 37 7 75 7 l68 0 0 -75z"/>
<path d="M1440 1565 l0 -135 130 0 130 0 0 135 0 135 -130 0 -130 0 0 -135z
m200 0 l0 -75 -70 0 -70 0 0 75 0 75 70 0 70 0 0 -75z"/>
<path d="M1040 1200 c0 -27 3 -30 30 -30 27 0 30 3 30 30 0 27 -3 30 -30 30
-27 0 -30 -3 -30 -30z"/>
<path d="M1160 1200 c0 -25 4 -30 25 -30 21 0 25 5 25 30 0 25 -4 30 -25 30
-21 0 -25 -5 -25 -30z"/>
<path d="M540 695 l0 -135 135 0 135 0 0 135 0 135 -135 0 -135 0 0 -135z
m210 0 l0 -75 -75 0 -75 0 0 68 c0 38 3 72 7 75 3 4 37 7 75 7 l68 0 0 -75z"/>
<path d="M1440 695 l0 -135 130 0 130 0 0 135 0 135 -130 0 -130 0 0 -135z
m200 0 l0 -75 -70 0 -70 0 0 75 0 75 70 0 70 0 0 -75z"/>
<path d="M1477 1973 c-4 -3 -7 -17 -7 -29 0 -29 25 -36 100 -32 56 3 79 21 67
52 -5 13 -21 16 -80 16 -41 0 -77 -3 -80 -7z"/>
</g>
</svg>
